<svg xmlns="http://www.w3.org/2000/svg"  viewBox="0 0 100 100" width="400px" height="400px"><path fill="#375ca9" d="M50,88c12.13-12.214,31-8.143,31-44.786V19c0,0-3,1-9.435,1C56.739,20,50,12,50,12 s-6.739,8-21.565,8C22,20,19,19,19,19v24.214C19,79.857,37.87,75.786,50,88z"/><path fill="#fbb97f" d="M51.125,34c-0.076,0-0.153-0.018-0.224-0.053l-2-1c-0.207-0.104-0.316-0.337-0.263-0.562 C48.691,32.159,48.894,32,49.125,32H52.5c0.217,0,0.408,0.14,0.476,0.346c0.066,0.206-0.007,0.432-0.182,0.559l-1.375,1 C51.332,33.968,51.229,34,51.125,34z"/><path fill="#fbb97f" d="M75.498,25.375c-0.001-0.001-0.004-0.003-0.005-0.003c-0.617,0.035-2.663,0.128-3.928,0.128 C61.243,25.5,54.14,22.063,50,19.18c-4.141,2.884-11.243,6.32-21.565,6.32c-1.363,0-2.687-0.041-3.935-0.123v17.837 c0,23.068,7.441,27.119,16.863,32.246c2.692,1.465,5.743,3.124,8.637,5.29c2.894-2.166,5.944-3.825,8.636-5.289 C68.059,70.333,75.5,66.282,75.5,43.214L75.498,25.375z M72.5,43.214c0,21.286-6.086,24.598-15.297,29.611 c-2.121,1.153-4.524,2.46-6.926,4.06L50,77.069l-0.277-0.185c-2.401-1.6-4.805-2.906-6.926-4.06 C33.586,67.812,27.5,64.5,27.5,43.214V28.496l0.935,0.004c9.922,0,17.063-3.036,21.309-5.583L50,22.763l0.257,0.154 c4.245,2.547,11.387,5.583,21.309,5.583L72,28.49V42.5h0.5V43.214z"/><path fill="#fbb97f" d="M71.838,48.804c-0.156,1.943-1.398,3.198-3.165,3.198c-1.838,0-2.628-1.218-2.968-2.243 l-0.409-1.197c-3.369-10.158-7.408-18.117-7.448-18.196c-0.063-0.125-0.177-0.217-0.312-0.254l-7.566-2.093 c-0.199-0.057-0.413,0.018-0.536,0.186l-1.722,2.345l-4.896,1.003c-0.145,0.03-0.27,0.122-0.34,0.253l-2.415,4.474 c-0.098,0.182-0.073,0.406,0.062,0.563c0.136,0.157,0.353,0.214,0.548,0.145c0.027-0.01,2.778-0.986,5.29-0.986 c3.4,0,4.31,1.478,4.748,2.454l0.113,0.258C52.267,42.022,53,44.654,53,46.532C53,51.663,48.854,54,44.992,54 c-1.525,0.028-4.398-0.276-6.696-2.539C36.108,49.309,35,45.957,35,41.5c0-3.724,1.946-8.769,1.966-8.818 c0.082-0.21,0.014-0.448-0.167-0.583c-0.181-0.133-0.429-0.131-0.605,0.007l-9,7l0.613,0.789l7.658-5.956 C34.862,35.791,34,38.897,34,41.5c0,4.734,1.209,8.326,3.594,10.674c1.855,1.827,4.417,2.828,7.223,2.827 c0.062,0,0.122,0,0.184-0.001c4.473,0,9-2.908,9-8.468c0-2.017-0.762-4.783-2.265-8.221l-3.162-7.247l1.462-1.99l7.02,1.941 c0.378,0.758,1.801,3.674,3.531,7.836C60.864,39.612,62,42.989,62,47.298C62,56.728,53.215,65,43.199,65 c-10.784,0-13.305-6.047-13.557-6.736l-0.939,0.344C28.979,59.364,31.735,66,43.199,66C53.747,66,63,57.261,63,47.298 c0-0.947-0.062-1.828-0.146-2.667c0.219,0.594,0.438,1.196,0.656,1.812c0.438,1.3,1.49,4.758,1.49,7.977 c0,12.381-5.911,16.91-10.357,19.239l0.465,0.887C57.801,73.135,66,68.838,66,54.421c0-0.857-0.07-1.722-0.18-2.561 c0.729,0.738,1.706,1.142,2.853,1.142c2.292,0,3.964-1.655,4.161-4.118L71.838,48.804z M45.959,35 c-1.647,0-3.344,0.376-4.438,0.678l1.724-3.192l4.46-0.914l1.823,4.179C48.697,35.309,47.553,35,45.959,35z"/><g><path fill="#1f212b" d="M50,89c-0.267,0-0.521-0.106-0.71-0.295c-3.309-3.332-7.235-5.47-11.033-7.536 C28.298,75.749,18,70.145,18,43.214V19c0-0.321,0.154-0.623,0.415-0.812c0.262-0.188,0.596-0.241,0.901-0.137 C19.343,18.06,22.286,19,28.435,19c14.135,0,20.737-7.569,20.802-7.646c0.19-0.223,0.47-0.353,0.763-0.353c0.001,0,0.002,0,0.003,0 c0.294,0.001,0.573,0.13,0.763,0.354C50.828,11.431,57.431,19,71.565,19c6.148,0,9.092-0.94,9.121-0.949 c0.304-0.101,0.64-0.049,0.899,0.14C81.845,18.379,82,18.68,82,19v24.214c0,26.931-10.298,32.535-20.257,37.955 c-3.798,2.066-7.725,4.204-11.033,7.536C50.521,88.894,50.267,89,50,89z M20,20.278v22.936c0,25.742,9.332,30.821,19.212,36.198 c3.663,1.993,7.442,4.05,10.788,7.193c3.346-3.144,7.125-5.2,10.788-7.193C70.668,74.035,80,68.956,80,43.214V20.278 C78.511,20.587,75.738,21,71.565,21C59.085,21,52.188,15.538,50,13.44C47.812,15.538,40.915,21,28.435,21 C24.262,21,21.489,20.587,20,20.278z"/><path fill="#1f212b" d="M50,81.25c-0.105,0-0.211-0.033-0.3-0.1c-2.865-2.145-5.899-3.795-8.576-5.251 C31.557,70.692,24,66.579,24,43.214V25.377c0-0.139,0.058-0.271,0.158-0.365c0.101-0.094,0.236-0.146,0.374-0.134 C25.771,24.959,27.083,25,28.435,25c10.192,0,17.198-3.389,21.279-6.23c0.172-0.119,0.4-0.119,0.572,0 C54.367,21.611,61.373,25,71.565,25c1.431,0,3.885-0.121,3.91-0.122c0.131-0.016,0.271,0.042,0.369,0.137 C75.944,25.109,76,25.24,76,25.377v17.837c0,23.365-7.557,27.479-17.124,32.686c-2.677,1.456-5.711,3.106-8.576,5.251 C50.211,81.217,50.105,81.25,50,81.25z M25,25.908v17.306c0,22.771,7.326,26.759,16.602,31.807 c2.615,1.423,5.566,3.028,8.398,5.107c2.832-2.079,5.783-3.685,8.397-5.107C67.674,69.973,75,65.984,75,43.214V25.9 c-0.81,0.036-2.373,0.1-3.435,0.1C61.347,26,54.236,22.668,50,19.787C45.764,22.668,38.653,26,28.435,26 C27.254,26,26.101,25.969,25,25.908z"/><path fill="#1f212b" d="M72.5,39c-0.276,0-0.5-0.224-0.5-0.5v-1c0-0.276,0.224-0.5,0.5-0.5s0.5,0.224,0.5,0.5v1 C73,38.776,72.776,39,72.5,39z"/><path fill="#1f212b" d="M72.5,35c-0.276,0-0.5-0.224-0.5-0.5v-3c0-0.276,0.224-0.5,0.5-0.5s0.5,0.224,0.5,0.5v3 C73,34.776,72.776,35,72.5,35z"/><path fill="#1f212b" d="M50,77.571c-0.098,0-0.195-0.028-0.28-0.086c-2.468-1.668-4.962-3.024-7.162-4.221 C33.189,68.165,27,64.796,27,43.214v-14.72c0-0.134,0.054-0.262,0.148-0.355c0.095-0.095,0.226-0.116,0.357-0.145 C27.813,27.998,28.123,28,28.435,28c9.958,0,17.082-3.081,21.305-5.666c0.16-0.098,0.361-0.098,0.521,0 C54.483,24.919,61.607,28,71.565,28c0.281,0,0.597-0.004,0.923-0.012c0.26-0.01,0.505,0.212,0.512,0.488s-0.212,0.505-0.488,0.512 C72.178,28.996,71.854,29,71.565,29C61.576,29,54.361,25.963,50,23.346C45.639,25.963,38.424,29,28.435,29 c-0.146,0-0.29,0-0.435-0.001v14.215c0,20.988,5.981,24.244,15.036,29.172c2.137,1.162,4.549,2.475,6.964,4.083 c2.415-1.608,4.827-2.921,6.964-4.083C66.019,67.458,72,64.202,72,43.214V42.5c0-0.276,0.224-0.5,0.5-0.5s0.5,0.224,0.5,0.5v0.714 c0,21.582-6.189,24.951-15.558,30.051c-2.2,1.196-4.694,2.553-7.162,4.221C50.195,77.543,50.098,77.571,50,77.571z"/></g></svg>